<svg width="960" height="199" viewBox="0 0 960 199" fill="none" xmlns="http://www.w3.org/2000/svg">
<path d="M960 2.52332H929.409V110.763H960V2.52332Z" fill="white"/>
<path d="M901.024 2.52332H873.249H872.564L873.249 5.26133L899.694 110.763H928.686L901.024 2.52332Z" fill="white"/>
<path d="M871.86 2.52338H841.025V110.763H871.879V7.09644H871.86V2.52338Z" fill="white"/>
<path d="M797.932 2.52338H769.649L788.937 61.7592H771.404H769.649H749.657L768.945 2.52338H740.662L704.444 110.763H733.968L741.152 88.3237H769.649H771.404H797.441L804.625 110.763H834.15L797.932 2.52338Z" fill="white"/>
<path d="M695.215 110.779H667.553L660.492 2.50781H687.768L695.215 110.779Z" fill="white"/>
<path d="M631.387 2.50781H659.087H659.787V2.53691L659.087 8.14959L646.282 110.779H618.62L631.387 2.50781Z" fill="white"/>
<path d="M605.154 2.50781H577.454H576.754V2.53691L577.454 8.14959L590.259 110.779H617.922L605.154 2.50781Z" fill="white"/>
<path d="M541.327 110.779H568.989L576.049 2.50781H548.774L541.327 110.779Z" fill="white"/>
<path d="M496.901 39.3329H525.787C525.787 39.3329 519.404 7.41188 481.368 1.29368C443.332 -4.82452 409.819 11.668 407.425 31.6187C407.425 31.6187 400.775 68.1651 443.598 68.1651C486.422 68.1651 491.209 68.1651 491.209 68.1651C491.209 68.1651 496.928 68.3279 496.928 78.4362C496.928 86.6825 488.55 86.6825 488.55 86.6825H450.425C442.64 86.6825 436.328 80.3704 436.328 72.584V72.584H405.297C405.297 72.584 405.269 109.604 463.015 113.017C520.024 116.387 527.915 87.2145 527.915 78.7022C527.915 70.1899 523.393 45.9831 499.455 45.9831C475.516 45.9831 442.534 45.9831 442.534 45.9831C442.534 45.9831 435.885 45.5841 435.885 36.4068C435.885 27.3625 444.263 27.3625 444.263 27.3625H484.773C491.305 27.3625 496.921 32.512 496.903 39.0452L496.901 39.3329Z" fill="white"/>
<path d="M393.746 2.50781H271.039V29.0583H318.32V110.779H346.933V29.0583H393.746V2.50781Z" fill="white"/>
<path d="M261.618 42.8511C261.618 14.4047 240.694 2.52338 225.089 2.52338H139.266V110.763H167.859V78.8316H200.53L222.659 110.763H259.623L233.158 74.8532C233.158 74.8532 261.618 71.2975 261.618 42.8511ZM231.471 43.5737H231.307C230.43 55.5288 219.755 54.858 219.755 54.858H167.885V43.5737V42.1245V30.8402H219.755C219.755 30.8402 230.43 30.1694 231.307 42.1245H231.471C231.471 42.4014 231.398 42.5843 231.389 42.8491C231.398 43.1138 231.471 43.2968 231.471 43.5737Z" fill="white"/>
<path d="M93.4878 2.52338H65.2048L84.4927 61.7592H45.213L64.5009 2.52338H36.2178L0 110.763H29.5241L36.7083 88.3237H92.9974L100.182 110.763H129.706L93.4878 2.52338Z" fill="white"/>
<path d="M319.44 191.93C317.38 189.83 316.35 187.17 316.35 183.95C316.35 180.73 317.38 178.08 319.44 176C321.52 173.9 324.14 172.85 327.3 172.85C330.84 172.85 333.63 174.13 335.67 176.69C336.57 177.79 337.23 179.06 337.65 180.5H334.95C334.53 179.5 334 178.65 333.36 177.95C331.78 176.25 329.76 175.4 327.3 175.4C324.88 175.4 322.9 176.19 321.36 177.77C319.82 179.35 319.05 181.41 319.05 183.95C319.05 186.49 319.82 188.55 321.36 190.13C322.9 191.71 324.88 192.5 327.3 192.5C329.8 192.5 331.87 191.58 333.51 189.74C334.17 188.98 334.7 188.05 335.1 186.95H337.8C337.32 188.51 336.62 189.86 335.7 191C333.6 193.7 330.8 195.05 327.3 195.05C324.14 195.05 321.52 194.01 319.44 191.93Z" fill="white"/>
<path d="M340.508 194.45L345.908 173.45H354.158L359.558 194.45H356.858L355.208 188.3H344.858L343.208 194.45H340.508ZM345.458 185.75H354.608L352.058 176H348.008L345.458 185.75Z" fill="white"/>
<path d="M364.052 194.45V173.45H366.752V190.7L366.722 191H366.782L377.402 173.45H381.002V194.45H378.302V177.2L378.332 176.9H378.272L367.652 194.45H364.052ZM367.802 167H370.202C370.202 167.68 370.412 168.23 370.832 168.65C371.252 169.05 371.842 169.25 372.602 169.25C373.362 169.25 373.952 169.05 374.372 168.65C374.792 168.23 375.002 167.68 375.002 167H377.402C377.402 168.22 376.962 169.23 376.082 170.03C375.222 170.81 374.062 171.2 372.602 171.2C371.142 171.2 369.972 170.81 369.092 170.03C368.232 169.23 367.802 168.22 367.802 167Z" fill="white"/>
<path d="M385.191 176V173.45H402.291V176H395.091V194.45H392.391V176H385.191Z" fill="white"/>
<path d="M425.086 194.45V173.45H427.786V194.45H425.086ZM406.486 194.45V173.45H409.186V180.65H414.586C416.946 180.65 418.836 181.3 420.256 182.6C421.676 183.9 422.386 185.55 422.386 187.55C422.386 189.55 421.676 191.2 420.256 192.5C418.836 193.8 416.946 194.45 414.586 194.45H406.486ZM409.186 191.9H414.586C416.206 191.9 417.456 191.51 418.336 190.73C419.236 189.93 419.686 188.87 419.686 187.55C419.686 186.23 419.236 185.18 418.336 184.4C417.456 183.6 416.206 183.2 414.586 183.2H409.186V191.9Z" fill="white"/>
<path d="M442.198 194.45L447.748 184.1L442.498 173.45H445.348L449.998 182.75H452.098L456.748 173.45H459.598L454.348 184.1L459.898 194.45H457.048L452.098 185.3H449.998L445.048 194.45H442.198Z" fill="white"/>
<path d="M474.302 194.45V173.45H489.152V176H477.002V181.55H483.152C485.492 181.55 487.322 182.15 488.642 183.35C489.982 184.53 490.652 186.08 490.652 188C490.652 189.92 489.982 191.48 488.642 192.68C487.322 193.86 485.492 194.45 483.152 194.45H474.302ZM477.002 191.9H483.152C484.692 191.9 485.872 191.55 486.692 190.85C487.532 190.13 487.952 189.18 487.952 188C487.952 186.82 487.532 185.88 486.692 185.18C485.872 184.46 484.692 184.1 483.152 184.1H477.002V191.9Z" fill="white"/>
<path d="M496.047 194.45V173.45H504.897C507.257 173.45 509.147 174.1 510.567 175.4C511.987 176.7 512.697 178.35 512.697 180.35C512.697 182.35 511.987 184 510.567 185.3C509.147 186.6 507.257 187.25 504.897 187.25H498.747V194.45H496.047ZM498.747 184.7H504.897C506.517 184.7 507.767 184.31 508.647 183.53C509.547 182.73 509.997 181.67 509.997 180.35C509.997 179.03 509.547 177.98 508.647 177.2C507.767 176.4 506.517 176 504.897 176H498.747V184.7Z" fill="white"/>
<path d="M517.644 194.45V173.45H532.344V176H520.344V182.6H530.094V185.15H520.344V191.9H532.344V194.45H517.644Z" fill="white"/>
<path d="M537.455 194.45V173.45H540.155V182.6H551.405V173.45H554.105V194.45H551.405V185.15H540.155V194.45H537.455Z" fill="white"/>
<path d="M558.15 198.5V191.9H560.55L565.2 173.45H573.15L577.8 191.9H580.2V198.5H577.5V194.45H560.85V198.5H558.15ZM563.25 191.9H575.1L571.05 176H567.3L563.25 191.9Z" fill="white"/>
<path d="M584.254 194.45V173.45H586.954V190.7L586.924 191H586.984L597.604 173.45H601.204V194.45H598.504V177.2L598.534 176.9H598.474L587.854 194.45H584.254Z" fill="white"/>
<path d="M607.492 194.45V173.45H610.192V182.6H621.442V173.45H624.142V194.45H621.442V185.15H610.192V194.45H607.492Z" fill="white"/>
<path d="M630.437 194.45V173.45H643.787V176H633.137V194.45H630.437Z" fill="white"/>
</svg>
